<svg width="25" height="24" viewBox="0 0 25 24" fill="none" xmlns="http://www.w3.org/2000/svg">
<path d="M12.9042 18.3508C13.853 18.3508 14.7196 18.25 15.51 18.0757L13.7477 16.3562C13.4739 16.3768 13.1961 16.3934 12.9042 16.3934C7.53723 16.3934 5.45804 12.6294 4.95454 11.5C5.33262 10.6768 5.84324 9.91785 6.46705 9.25201L5.06487 7.88383C3.52228 9.51528 2.93754 11.1585 2.92651 11.1908C2.85732 11.3918 2.85732 11.6093 2.92651 11.8103C2.94757 11.8749 5.24842 18.3508 12.9042 18.3508ZM12.9042 4.6493C11.0617 4.6493 9.54822 5.03686 8.28646 5.60938L4.58645 2.00003L3.16823 3.38388L21.222 21L22.6402 19.6162L19.3113 16.368C21.9331 14.4586 22.8689 11.8514 22.8829 11.8103C22.9521 11.6093 22.9521 11.3918 22.8829 11.1908C22.8608 11.1252 20.56 4.6493 12.9042 4.6493ZM17.8911 14.9822L15.6042 12.7508C15.7948 12.3691 15.9132 11.9492 15.9132 11.5C15.9132 9.89402 14.5501 8.564 12.9042 8.564C12.4438 8.564 12.0136 8.67949 11.6234 8.86642L9.81 7.09697C10.8055 6.76365 11.8518 6.59785 12.9042 6.60665C18.2712 6.60665 20.3504 10.3706 20.8539 11.5C20.551 12.1773 19.6844 13.7921 17.8911 14.9822Z" fill="#A09F99"/>
</svg>
